<svg width="6" height="10" viewBox="0 0 6 10" fill="none" xmlns="http://www.w3.org/2000/svg">
<path d="M0.279313 0.280602C0.100414 0.458339 -4.0657e-07 0.698769 -3.95615e-07 0.949381C-3.8466e-07 1.19999 0.100414 1.44042 0.279313 1.61816L3.67957 5.02372L0.279313 8.38184C0.100415 8.55958 -5.24533e-08 8.80001 -4.14987e-08 9.05062C-3.05441e-08 9.30123 0.100415 9.54166 0.279313 9.7194C0.368606 9.80831 0.474841 9.87888 0.59189 9.92704C0.708939 9.9752 0.834485 10 0.961285 10C1.08809 10 1.21363 9.9752 1.33068 9.92704C1.44773 9.87888 1.55396 9.80831 1.64326 9.7194L5.71588 5.69724C5.80591 5.60905 5.87736 5.50413 5.92613 5.38853C5.97489 5.27294 6 5.14895 6 5.02372C6 4.89849 5.97489 4.7745 5.92613 4.6589C5.87736 4.5433 5.80591 4.43838 5.71588 4.35019L1.64326 0.280602C1.55396 0.191689 1.44773 0.121118 1.33068 0.072957C1.21363 0.0247964 1.08809 -4.75617e-08 0.961285 -4.20191e-08C0.834484 -3.64765e-08 0.708938 0.0247965 0.59189 0.072957C0.474841 0.121118 0.368606 0.191689 0.279313 0.280602Z" fill="white"/>
</svg>
