<svg width="40" height="40" viewBox="0 0 40 40" fill="none" xmlns="http://www.w3.org/2000/svg">
<circle opacity="0.5" cx="20" cy="20" r="19.3" stroke="white" stroke-width="1.4"/>
<path d="M22.6741 14.3367C22.8829 14.55 23 14.8385 23 15.1393C23 15.44 22.8829 15.7285 22.6741 15.9418L18.7072 20.0285L22.6741 24.0582C22.8828 24.2715 23 24.56 23 24.8607C23 25.1615 22.8828 25.45 22.6741 25.6633C22.57 25.77 22.446 25.8547 22.3095 25.9125C22.1729 25.9702 22.0264 26 21.8785 26C21.7306 26 21.5841 25.9702 21.4475 25.9125C21.311 25.8547 21.187 25.77 21.0829 25.6633L16.3315 20.8367C16.2264 20.7309 16.1431 20.605 16.0862 20.4662C16.0293 20.3275 16 20.1787 16 20.0285C16 19.8782 16.0293 19.7294 16.0862 19.5907C16.1431 19.452 16.2264 19.3261 16.3315 19.2202L21.0829 14.3367C21.187 14.23 21.311 14.1453 21.4475 14.0875C21.5841 14.0298 21.7306 14 21.8785 14C22.0264 14 22.1729 14.0298 22.3095 14.0875C22.446 14.1453 22.57 14.23 22.6741 14.3367Z" fill="white"/>
</svg>
