<svg width="42" height="16" viewBox="0 0 42 16" fill="none" xmlns="http://www.w3.org/2000/svg">
<path d="M41 7C41.5523 7 42 7.44772 42 8C42 8.55228 41.5523 9 41 9L41 7ZM0.292892 8.7071C-0.0976296 8.31658 -0.0976295 7.68341 0.292893 7.29289L6.65685 0.928929C7.04738 0.538405 7.68054 0.538405 8.07107 0.928929C8.46159 1.31945 8.46159 1.95262 8.07107 2.34314L2.41422 8L8.07107 13.6569C8.46159 14.0474 8.46159 14.6805 8.07107 15.0711C7.68054 15.4616 7.04738 15.4616 6.65685 15.0711L0.292892 8.7071ZM41 9L1 9L1 7L41 7L41 9Z" fill="white"/>
</svg>
