<svg width="30" height="30" viewBox="0 0 30 30" fill="none" xmlns="http://www.w3.org/2000/svg">
<circle cx="15" cy="15" r="14.5" stroke="#363636"/>
<path d="M15.9979 15L18.7912 12.2067C18.9238 12.0744 18.9983 11.8948 18.9985 11.7075C18.9987 11.5202 18.9244 11.3405 18.7921 11.2079C18.6597 11.0754 18.4802 11.0008 18.2929 11.0006C18.1055 11.0005 17.9258 11.0747 17.7933 11.207L15 14.0003L12.2067 11.207C12.0742 11.0745 11.8944 11 11.7069 11C11.5194 11 11.3396 11.0745 11.207 11.207C11.0745 11.3396 11 11.5194 11 11.7069C11 11.8944 11.0745 12.0742 11.207 12.2067L14.0003 15L11.207 17.7933C11.0745 17.9258 11 18.1056 11 18.2931C11 18.4806 11.0745 18.6604 11.207 18.793C11.3396 18.9255 11.5194 19 11.7069 19C11.8944 19 12.0742 18.9255 12.2067 18.793L15 15.9997L17.7933 18.793C17.9258 18.9255 18.1056 19 18.2931 19C18.4806 19 18.6604 18.9255 18.793 18.793C18.9255 18.6604 19 18.4806 19 18.2931C19 18.1056 18.9255 17.9258 18.793 17.7933L15.9979 15Z" fill="#363636"/>
</svg>
