<svg width="22" height="22" viewBox="0 0 22 22" fill="none" xmlns="http://www.w3.org/2000/svg">
<path d="M13.7443 11L21.4258 3.31853C21.7903 2.95461 21.9954 2.46078 21.9959 1.94566C21.9963 1.43055 21.7921 0.936356 21.4282 0.571795C21.0643 0.207234 20.5705 0.0021705 20.0553 0.00171558C19.5402 0.00126067 19.046 0.205452 18.6815 0.56937L11 8.25084L3.31853 0.56937C2.95397 0.204809 2.45952 0 1.94395 0C1.42838 0 0.933931 0.204809 0.56937 0.56937C0.204809 0.933931 0 1.42838 0 1.94395C0 2.45952 0.204809 2.95397 0.56937 3.31853L8.25084 11L0.56937 18.6815C0.204809 19.046 0 19.5405 0 20.0561C0 20.5716 0.204809 21.0661 0.56937 21.4306C0.933931 21.7952 1.42838 22 1.94395 22C2.45952 22 2.95397 21.7952 3.31853 21.4306L11 13.7492L18.6815 21.4306C19.046 21.7952 19.5405 22 20.0561 22C20.5716 22 21.0661 21.7952 21.4306 21.4306C21.7952 21.0661 22 20.5716 22 20.0561C22 19.5405 21.7952 19.046 21.4306 18.6815L13.7443 11Z" fill="white"/>
</svg>
