<svg width="40" height="40" viewBox="0 0 40 40" fill="none" xmlns="http://www.w3.org/2000/svg">
<circle cx="20" cy="20" r="19.3" stroke="white" stroke-width="1.4"/>
<path d="M20 15C19.0111 15 18.0444 15.2932 17.2221 15.8427C16.3999 16.3921 15.759 17.173 15.3806 18.0866C15.0022 19.0002 14.9031 20.0055 15.0961 20.9755C15.289 21.9454 15.7652 22.8363 16.4645 23.5355C17.1637 24.2348 18.0546 24.711 19.0245 24.9039C19.9945 25.0969 20.9998 24.9978 21.9134 24.6194C22.827 24.241 23.6079 23.6001 24.1573 22.7779C24.7068 21.9556 25 20.9889 25 20C25 18.6739 24.4732 17.4021 23.5355 16.4645C22.5979 15.5268 21.3261 15 20 15ZM20 23C19.4067 23 18.8266 22.8241 18.3333 22.4944C17.8399 22.1648 17.4554 21.6962 17.2284 21.1481C17.0013 20.5999 16.9419 19.9967 17.0576 19.4147C17.1734 18.8328 17.4591 18.2982 17.8787 17.8787C18.2982 17.4591 18.8328 17.1734 19.4147 17.0576C19.9967 16.9419 20.5999 17.0013 21.1481 17.2284C21.6962 17.4554 22.1648 17.8399 22.4944 18.3333C22.8241 18.8266 23 19.4067 23 20C23 20.7956 22.6839 21.5587 22.1213 22.1213C21.5587 22.6839 20.7956 23 20 23ZM25 14C24.8022 14 24.6089 14.0586 24.4444 14.1685C24.28 14.2784 24.1518 14.4346 24.0761 14.6173C24.0004 14.8 23.9806 15.0011 24.0192 15.1951C24.0578 15.3891 24.153 15.5673 24.2929 15.7071C24.4327 15.847 24.6109 15.9422 24.8049 15.9808C24.9989 16.0194 25.2 15.9996 25.3827 15.9239C25.5654 15.8482 25.7216 15.72 25.8315 15.5556C25.9414 15.3911 26 15.1978 26 15C26 14.7348 25.8946 14.4804 25.7071 14.2929C25.5196 14.1054 25.2652 14 25 14ZM29.94 16.24C29.9234 15.3854 29.7611 14.5399 29.46 13.74C29.1808 13.0121 28.7516 12.351 28.2003 11.7997C27.649 11.2484 26.9879 10.8192 26.26 10.54C25.4601 10.2389 24.6146 10.0766 23.76 10.06C22.79 10 22.47 10 20 10C17.53 10 17.21 10 16.24 10.06C15.3854 10.0766 14.5399 10.2389 13.74 10.54C13.0121 10.8192 12.351 11.2484 11.7997 11.7997C11.2484 12.351 10.8192 13.0121 10.54 13.74C10.2389 14.5399 10.0766 15.3854 10.06 16.24C10 17.22 10 17.54 10 20C10 22.46 10 22.78 10.06 23.76C10.0766 24.6146 10.2389 25.4601 10.54 26.26C10.8192 26.9879 11.2484 27.649 11.7997 28.2003C12.351 28.7516 13.0121 29.1808 13.74 29.46C14.5399 29.7611 15.3854 29.9234 16.24 29.94C17.24 29.94 17.53 30 20 30C22.47 30 22.79 30 23.76 29.94C24.6146 29.9234 25.4601 29.7611 26.26 29.46C26.9879 29.1808 27.649 28.7516 28.2003 28.2003C28.7516 27.649 29.1808 26.9879 29.46 26.26C29.7611 25.4601 29.9234 24.6146 29.94 23.76C29.94 22.76 30 22.46 30 20C30 17.54 30 17.22 29.94 16.24ZM27.94 23.67C27.9225 24.3046 27.8043 24.9324 27.59 25.53C27.4128 26.0023 27.1327 26.4293 26.77 26.78C26.4214 27.1428 25.9936 27.4201 25.52 27.59C24.921 27.8131 24.289 27.9348 23.65 27.95C22.71 27.95 22.42 28 19.99 28C17.56 28 17.28 28 16.34 28C15.702 27.9835 15.0708 27.8654 14.47 27.65C13.9977 27.4728 13.5707 27.1927 13.22 26.83C12.8572 26.4814 12.5799 26.0536 12.41 25.58C12.1878 24.9842 12.0661 24.3557 12.05 23.72C12.05 22.72 12.05 22.47 12.05 20.05C12.05 17.63 12.05 17.34 12.05 16.38C12.0672 15.7412 12.1888 15.1095 12.41 14.51C12.5826 14.0406 12.8595 13.6166 13.22 13.27C13.5686 12.9072 13.9964 12.6299 14.47 12.46C15.069 12.2369 15.701 12.1152 16.34 12.1C17.28 12 17.57 12 20 12C22.43 12 22.72 12 23.66 12C24.3021 12.0163 24.9373 12.1379 25.54 12.36C26.0094 12.5326 26.4334 12.8095 26.78 13.17C27.1428 13.5186 27.4201 13.9464 27.59 14.42C27.8348 15.0286 27.9735 15.6746 28 16.33C28 17.33 28.05 17.58 28.05 20C28.05 22.42 28 22.71 28 23.67H27.94Z" fill="white"/>
</svg>
