<svg width="46" height="63" viewBox="0 0 46 63" fill="none" xmlns="http://www.w3.org/2000/svg">
<path d="M11.0574 61.4551L11.0574 39.7705L12.464 38.5039L12.4648 38.5048C13.2733 39.5194 14.0368 40.4776 15.0038 40.7812C15.912 41.0663 17.0864 40.7375 18.3296 40.3894C19.3643 40.0996 20.4344 39.7999 21.5216 39.7999C22.6087 39.7999 23.6786 40.0995 24.7135 40.3894L24.7136 40.3894C25.9567 40.7376 27.131 41.0665 28.0394 40.7812C29.0067 40.4773 31.177 39.5188 31.9856 38.5039V39.7704V46.0232V46.6041V61.4553C31.9856 62.0046 31.6942 62.5002 31.2061 62.7809C30.953 62.9266 30.6726 62.9997 30.3916 62.9997C30.1309 62.9997 29.8697 62.9368 29.6296 62.8105L21.5216 58.5488L13.4134 62.8102C12.9145 63.0724 12.3253 63.0615 11.8369 62.7807C11.3488 62.5 11.0574 62.0043 11.0574 61.4551Z" fill="#AFB0B0"/>
<path d="M44.1984 17.234C43.6678 16.485 43.1667 15.7773 42.9384 15.097C42.6941 14.3696 42.6644 13.4821 42.633 12.5428C42.5833 11.0535 42.5319 9.51348 41.6077 8.28528C40.6739 7.04441 39.1683 6.52134 37.7119 6.01574C36.8044 5.70045 35.9472 5.40287 35.3196 4.96112C34.705 4.52834 34.1551 3.83834 33.5731 3.10787C32.6223 1.9146 31.6392 0.680741 30.1087 0.200114C28.6415 -0.260708 27.1257 0.163824 25.6598 0.574331C24.7114 0.839925 23.8157 1.09088 22.9999 1.09088C22.1842 1.09088 21.2885 0.840048 20.3401 0.574454C18.8742 0.163824 17.3586 -0.260585 15.8911 0.200237C14.3606 0.680864 13.3775 1.91472 12.4268 3.10799C11.8447 3.83846 11.2949 4.52847 10.6802 4.96124C10.0527 5.40287 9.19552 5.70057 8.28796 6.01586C6.83162 6.52159 5.32593 7.04453 4.39218 8.2854C3.46808 9.51373 3.41657 11.0538 3.36672 12.5431C3.33531 13.4825 3.30567 14.3698 3.06149 15.0972C2.8332 15.7776 2.33211 16.4851 1.80151 17.2343C0.95716 18.4267 0 19.7781 0 21.3635C0 22.9488 0.95716 24.3004 1.80151 25.4928C2.33211 26.2419 2.83307 26.9495 3.06149 27.6298C3.3058 28.3572 3.33543 29.2445 3.36685 30.184C3.41657 31.6733 3.46796 33.2132 4.39218 34.4415C5.32593 35.6824 6.83162 36.2053 8.28796 36.7111C9.19552 37.0262 10.0527 37.3239 10.6802 37.7656C11.295 38.1983 11.8448 38.8883 12.4268 39.6188C12.463 39.6643 12.4995 39.71 12.5359 39.7556V61.4402C12.5359 61.9894 12.8273 62.4851 13.3154 62.7658C13.8038 63.0466 14.393 63.0575 14.8919 62.7953L23.0001 58.5339L31.1081 62.7956C31.3482 62.9219 31.6094 62.9848 31.8701 62.9848C32.1511 62.9848 32.4315 62.9117 32.6846 62.766C33.1727 62.4853 33.4641 61.9897 33.4641 61.4404V45.6392C33.4641 45.1281 33.0359 44.7138 32.5073 44.7138C31.9789 44.7138 31.5505 45.1281 31.5505 45.6392V60.9218L23.7614 56.8276C23.2847 56.5772 22.7156 56.5772 22.2386 56.8276L14.4496 60.9217V41.7668C14.8772 42.0906 15.3494 42.3564 15.8913 42.5267C16.3442 42.6689 16.8014 42.7268 17.2608 42.7267C18.2893 42.7267 19.3268 42.4361 20.3402 42.1523C21.2886 41.8867 22.1843 41.6359 23.0001 41.6359C23.8158 41.6359 24.7115 41.8869 25.6599 42.1523C27.1258 42.5628 28.6411 42.9875 30.1089 42.5266C30.6507 42.3564 31.1231 42.0906 31.5505 41.7667V46.5892C31.5505 47.1003 31.9789 47.5146 32.5073 47.5146C33.0357 47.5146 33.4641 47.1003 33.4641 46.5892V39.7555C33.5005 39.7098 33.537 39.6642 33.5732 39.6187C34.1552 38.8882 34.705 38.1982 35.3198 37.7654C35.9473 37.3238 36.8045 37.026 37.712 36.7108C39.1684 36.205 40.6741 35.682 41.6078 34.4413C42.5319 33.2129 42.5834 31.6729 42.6333 30.1835C42.6647 29.2442 42.6943 28.3568 42.9385 27.6294C43.1668 26.949 43.6679 26.2414 44.1985 25.4924C45.0428 24.3 46 22.9485 46 21.3631C45.9999 19.778 45.0427 18.4264 44.1984 17.234ZM42.6197 24.4466C42.0358 25.2711 41.4319 26.1237 41.1183 27.0582C40.7904 28.0352 40.755 29.097 40.7206 30.124C40.6784 31.3893 40.6385 32.5844 40.0605 33.3524C39.4735 34.1329 38.3038 34.5391 37.0655 34.9691C36.0709 35.3144 35.0428 35.6716 34.1938 36.2692C33.357 36.8582 32.6964 37.6873 32.0576 38.4891C31.249 39.504 30.4851 40.4625 29.5179 40.7663C28.6095 41.0516 27.4352 40.7228 26.192 40.3745C25.1572 40.0847 24.0872 39.785 23.0001 39.785C21.9129 39.785 20.8428 40.0847 19.8081 40.3745C18.5649 40.7226 17.3905 41.0515 16.4823 40.7663C15.515 40.4626 14.7513 39.5039 13.9425 38.489C13.3037 37.6872 12.6431 36.8582 11.8063 36.2691C10.9574 35.6716 9.9291 35.3144 8.93468 34.969C7.69645 34.5389 6.52677 34.1327 5.93958 33.3523C5.36167 32.5843 5.32186 31.3892 5.27964 30.1241C5.24517 29.097 5.20969 28.035 4.88182 27.058C4.56807 26.1237 3.96434 25.2711 3.38045 24.4466C2.62628 23.3817 1.91381 22.3756 1.91381 21.3633C1.91381 20.351 2.62628 19.3451 3.38045 18.28C3.96434 17.4556 4.56819 16.6029 4.88182 15.6686C5.20969 14.6916 5.24517 13.6298 5.27951 12.6028C5.32174 11.3375 5.36167 10.1425 5.93958 9.37435C6.52664 8.59393 7.69632 8.18773 8.93468 7.75766C9.92923 7.41235 10.9574 7.05523 11.8063 6.45762C12.6431 5.86861 13.3037 5.03948 13.9425 4.23765C14.7511 3.22276 15.5149 2.26421 16.4822 1.96049C17.3906 1.67521 18.5649 2.00403 19.8081 2.35217C20.843 2.642 21.9129 2.94167 23.0001 2.94167C24.0872 2.94167 25.1573 2.642 26.192 2.35217C27.4352 2.00391 28.6096 1.67509 29.5178 1.96049C30.4851 2.26434 31.2489 3.22289 32.0576 4.23778C32.6964 5.03948 33.357 5.86861 34.1938 6.45762C35.0428 7.05523 36.071 7.41235 37.0655 7.75766C38.3037 8.18773 39.4734 8.59393 40.0605 9.37435C40.6385 10.1423 40.6783 11.3375 40.7205 12.6026C40.755 13.6295 40.7904 14.6916 41.1183 15.6686C41.4321 16.6029 42.0358 17.4555 42.6197 18.28C43.3739 19.3451 44.0863 20.3512 44.0863 21.3633C44.0863 22.3755 43.3739 23.3817 42.6197 24.4466Z" fill="white"/>
<path fill-rule="evenodd" clip-rule="evenodd" d="M17.7319 7.43113C19.4175 6.8346 21.19 6.53223 23.0002 6.53223C25.0692 6.53223 27.0436 6.93059 28.8461 7.65223C30.6646 8.37496 32.3676 9.44955 33.8424 10.8761C35.3014 12.2874 36.4043 13.9146 37.1512 15.6524C37.9126 17.411 38.3334 19.3406 38.3334 21.3634C38.3334 23.3781 37.9159 25.3003 37.1602 27.0533C36.4132 28.799 35.3072 30.4337 33.8423 31.8507C32.3701 33.2747 30.6707 34.3479 28.8558 35.0706C27.0507 35.7947 25.0728 36.1946 23.0001 36.1946C20.9279 36.1946 18.9504 35.7949 17.1457 35.0711C15.3304 34.3484 13.6305 33.275 12.158 31.8507C9.27268 29.0598 7.68621 25.376 7.66721 21.443C7.66705 21.4165 7.66699 21.3899 7.66699 21.3634C7.66699 17.3474 9.29394 13.5972 12.2518 10.7863C13.8372 9.27848 15.68 8.17223 17.6434 7.46735C17.672 7.45401 17.7015 7.44188 17.7319 7.43113Z" fill="#A67C52"/>
<path d="M23.0002 6.53223C21.19 6.53223 19.4174 6.8346 17.7319 7.43111C17.2358 7.60678 16.9807 8.13821 17.1623 8.61823C17.3436 9.09811 17.8929 9.34501 18.3894 9.16934C19.8637 8.64763 21.4149 8.38314 23.0002 8.38314C30.3999 8.38314 36.4199 14.206 36.4199 21.3634C36.4199 28.5208 30.3999 34.3437 23.0002 34.3437C15.6006 34.3437 9.58055 28.5208 9.58055 21.3634C9.58055 17.8053 11.0398 14.4854 13.6896 12.0155C14.07 11.6608 14.0813 11.075 13.7147 10.7069C13.3481 10.3387 12.7425 10.328 12.3619 10.6827C9.33433 13.5047 7.66699 17.2978 7.66699 21.3634C7.66699 29.5413 14.5454 36.1946 23.0001 36.1946C31.4549 36.1946 38.3334 29.5413 38.3334 21.3634C38.3335 13.1854 31.4551 6.53223 23.0002 6.53223Z" fill="white"/>
</svg>
