<svg width="1920" height="978" viewBox="0 0 1920 978" fill="none" xmlns="http://www.w3.org/2000/svg">
<g opacity="0.3">
<circle cx="81.5" cy="81.5" r="81" stroke="#A67C52"/>
<circle cx="81.4996" cy="81.5001" r="53.605" stroke="#A67C52"/>
<circle cx="81.4999" cy="81.4999" r="23.4706" stroke="#A67C52"/>
</g>
<g opacity="0.3">
<circle cx="81.5" cy="244.5" r="81" stroke="#A67C52"/>
<circle cx="81.4996" cy="244.5" r="53.605" stroke="#A67C52"/>
<circle cx="81.4999" cy="244.5" r="23.4706" stroke="#A67C52"/>
</g>
<g opacity="0.3">
<circle cx="733.5" cy="81.5" r="81" stroke="#A67C52"/>
<circle cx="733.5" cy="81.5001" r="53.605" stroke="#A67C52"/>
<circle cx="733.5" cy="81.4999" r="23.4706" stroke="#A67C52"/>
</g>
<g opacity="0.3">
<circle cx="733.5" cy="244.5" r="81" stroke="#A67C52"/>
<circle cx="733.5" cy="244.5" r="53.605" stroke="#A67C52"/>
<circle cx="733.5" cy="244.5" r="23.4706" stroke="#A67C52"/>
</g>
<g opacity="0.3">
<circle cx="1385.5" cy="81.5" r="81" stroke="#A67C52"/>
<circle cx="1385.5" cy="81.5001" r="53.605" stroke="#A67C52"/>
<circle cx="1385.5" cy="81.4999" r="23.4706" stroke="#A67C52"/>
</g>
<g opacity="0.3">
<circle cx="1385.5" cy="244.5" r="81" stroke="#A67C52"/>
<circle cx="1385.5" cy="244.5" r="53.605" stroke="#A67C52"/>
<circle cx="1385.5" cy="244.5" r="23.4706" stroke="#A67C52"/>
</g>
<g opacity="0.3">
<circle cx="407.5" cy="81.5" r="81" stroke="#A67C52"/>
<circle cx="407.5" cy="81.5001" r="53.605" stroke="#A67C52"/>
<circle cx="407.5" cy="81.4999" r="23.4706" stroke="#A67C52"/>
</g>
<g opacity="0.3">
<circle cx="407.5" cy="244.5" r="81" stroke="#A67C52"/>
<circle cx="407.5" cy="244.5" r="53.605" stroke="#A67C52"/>
<circle cx="407.5" cy="244.5" r="23.4706" stroke="#A67C52"/>
</g>
<g opacity="0.3">
<circle cx="1059.5" cy="81.5" r="81" stroke="#A67C52"/>
<circle cx="1059.5" cy="81.5001" r="53.605" stroke="#A67C52"/>
<circle cx="1059.5" cy="81.4999" r="23.4706" stroke="#A67C52"/>
</g>
<g opacity="0.3">
<circle cx="1059.5" cy="244.5" r="81" stroke="#A67C52"/>
<circle cx="1059.5" cy="244.5" r="53.605" stroke="#A67C52"/>
<circle cx="1059.5" cy="244.5" r="23.4706" stroke="#A67C52"/>
</g>
<g opacity="0.3">
<circle cx="1711.5" cy="81.5" r="81" stroke="#A67C52"/>
<circle cx="1711.5" cy="81.5001" r="53.605" stroke="#A67C52"/>
<circle cx="1711.5" cy="81.4999" r="23.4706" stroke="#A67C52"/>
</g>
<g opacity="0.3">
<circle cx="1711.5" cy="244.5" r="81" stroke="#A67C52"/>
<circle cx="1711.5" cy="244.5" r="53.605" stroke="#A67C52"/>
<circle cx="1711.5" cy="244.5" r="23.4706" stroke="#A67C52"/>
</g>
<g opacity="0.3">
<circle cx="244.5" cy="81.5" r="81" stroke="#A67C52"/>
<circle cx="244.5" cy="81.5001" r="53.605" stroke="#A67C52"/>
<circle cx="244.5" cy="81.4999" r="23.4706" stroke="#A67C52"/>
</g>
<g opacity="0.3">
<circle cx="244.5" cy="244.5" r="81" stroke="#A67C52"/>
<circle cx="244.5" cy="244.5" r="53.605" stroke="#A67C52"/>
<circle cx="244.5" cy="244.5" r="23.4706" stroke="#A67C52"/>
</g>
<g opacity="0.3">
<circle cx="896.5" cy="81.5" r="81" stroke="#A67C52"/>
<circle cx="896.5" cy="81.5001" r="53.605" stroke="#A67C52"/>
<circle cx="896.5" cy="81.4999" r="23.4706" stroke="#A67C52"/>
</g>
<g opacity="0.3">
<circle cx="896.5" cy="244.5" r="81" stroke="#A67C52"/>
<circle cx="896.5" cy="244.5" r="53.605" stroke="#A67C52"/>
<circle cx="896.5" cy="244.5" r="23.4706" stroke="#A67C52"/>
</g>
<g opacity="0.3">
<circle cx="1548.5" cy="81.5" r="81" stroke="#A67C52"/>
<circle cx="1548.5" cy="81.5001" r="53.605" stroke="#A67C52"/>
<circle cx="1548.5" cy="81.4999" r="23.4706" stroke="#A67C52"/>
</g>
<g opacity="0.3">
<circle cx="1548.5" cy="244.5" r="81" stroke="#A67C52"/>
<circle cx="1548.5" cy="244.5" r="53.605" stroke="#A67C52"/>
<circle cx="1548.5" cy="244.5" r="23.4706" stroke="#A67C52"/>
</g>
<g opacity="0.3">
<circle cx="570.5" cy="81.5" r="81" stroke="#A67C52"/>
<circle cx="570.5" cy="81.5001" r="53.605" stroke="#A67C52"/>
<circle cx="570.5" cy="81.4999" r="23.4706" stroke="#A67C52"/>
</g>
<g opacity="0.3">
<circle cx="570.5" cy="244.5" r="81" stroke="#A67C52"/>
<circle cx="570.5" cy="244.5" r="53.605" stroke="#A67C52"/>
<circle cx="570.5" cy="244.5" r="23.4706" stroke="#A67C52"/>
</g>
<g opacity="0.3">
<circle cx="1222.5" cy="81.5" r="81" stroke="#A67C52"/>
<circle cx="1222.5" cy="81.5001" r="53.605" stroke="#A67C52"/>
<circle cx="1222.5" cy="81.4999" r="23.4706" stroke="#A67C52"/>
</g>
<g opacity="0.3">
<circle cx="1222.5" cy="244.5" r="81" stroke="#A67C52"/>
<circle cx="1222.5" cy="244.5" r="53.605" stroke="#A67C52"/>
<circle cx="1222.5" cy="244.5" r="23.4706" stroke="#A67C52"/>
</g>
<g opacity="0.3">
<circle cx="1874.5" cy="81.5" r="81" stroke="#A67C52"/>
<circle cx="1874.5" cy="81.5001" r="53.605" stroke="#A67C52"/>
<circle cx="1874.5" cy="81.4999" r="23.4706" stroke="#A67C52"/>
</g>
<g opacity="0.3">
<circle cx="1874.5" cy="244.5" r="81" stroke="#A67C52"/>
<circle cx="1874.5" cy="244.5" r="53.605" stroke="#A67C52"/>
<circle cx="1874.5" cy="244.5" r="23.4706" stroke="#A67C52"/>
</g>
<g opacity="0.3">
<circle cx="81.5" cy="407.5" r="81" stroke="#A67C52"/>
<circle cx="81.4996" cy="407.5" r="53.605" stroke="#A67C52"/>
<circle cx="81.4999" cy="407.5" r="23.4706" stroke="#A67C52"/>
</g>
<g opacity="0.3">
<circle cx="81.5" cy="570.5" r="81" stroke="#A67C52"/>
<circle cx="81.4996" cy="570.5" r="53.605" stroke="#A67C52"/>
<circle cx="81.4999" cy="570.5" r="23.4706" stroke="#A67C52"/>
</g>
<g opacity="0.3">
<circle cx="733.5" cy="407.5" r="81" stroke="#A67C52"/>
<circle cx="733.5" cy="407.5" r="53.605" stroke="#A67C52"/>
<circle cx="733.5" cy="407.5" r="23.4706" stroke="#A67C52"/>
</g>
<g opacity="0.3">
<circle cx="733.5" cy="570.5" r="81" stroke="#A67C52"/>
<circle cx="733.5" cy="570.5" r="53.605" stroke="#A67C52"/>
<circle cx="733.5" cy="570.5" r="23.4706" stroke="#A67C52"/>
</g>
<g opacity="0.3">
<circle cx="1385.5" cy="407.5" r="81" stroke="#A67C52"/>
<circle cx="1385.5" cy="407.5" r="53.605" stroke="#A67C52"/>
<circle cx="1385.5" cy="407.5" r="23.4706" stroke="#A67C52"/>
</g>
<g opacity="0.3">
<circle cx="1385.5" cy="570.5" r="81" stroke="#A67C52"/>
<circle cx="1385.5" cy="570.5" r="53.605" stroke="#A67C52"/>
<circle cx="1385.5" cy="570.5" r="23.4706" stroke="#A67C52"/>
</g>
<g opacity="0.3">
<circle cx="407.5" cy="407.5" r="81" stroke="#A67C52"/>
<circle cx="407.5" cy="407.5" r="53.605" stroke="#A67C52"/>
<circle cx="407.5" cy="407.5" r="23.4706" stroke="#A67C52"/>
</g>
<g opacity="0.3">
<circle cx="407.5" cy="570.5" r="81" stroke="#A67C52"/>
<circle cx="407.5" cy="570.5" r="53.605" stroke="#A67C52"/>
<circle cx="407.5" cy="570.5" r="23.4706" stroke="#A67C52"/>
</g>
<g opacity="0.3">
<circle cx="1059.5" cy="407.5" r="81" stroke="#A67C52"/>
<circle cx="1059.5" cy="407.5" r="53.605" stroke="#A67C52"/>
<circle cx="1059.5" cy="407.5" r="23.4706" stroke="#A67C52"/>
</g>
<g opacity="0.3">
<circle cx="1059.5" cy="570.5" r="81" stroke="#A67C52"/>
<circle cx="1059.5" cy="570.5" r="53.605" stroke="#A67C52"/>
<circle cx="1059.5" cy="570.5" r="23.4706" stroke="#A67C52"/>
</g>
<g opacity="0.3">
<circle cx="1711.5" cy="407.5" r="81" stroke="#A67C52"/>
<circle cx="1711.5" cy="407.5" r="53.605" stroke="#A67C52"/>
<circle cx="1711.5" cy="407.5" r="23.4706" stroke="#A67C52"/>
</g>
<g opacity="0.3">
<circle cx="1711.5" cy="570.5" r="81" stroke="#A67C52"/>
<circle cx="1711.5" cy="570.5" r="53.605" stroke="#A67C52"/>
<circle cx="1711.5" cy="570.5" r="23.4706" stroke="#A67C52"/>
</g>
<g opacity="0.3">
<circle cx="244.5" cy="407.5" r="81" stroke="#A67C52"/>
<circle cx="244.5" cy="407.5" r="53.605" stroke="#A67C52"/>
<circle cx="244.5" cy="407.5" r="23.4706" stroke="#A67C52"/>
</g>
<g opacity="0.3">
<circle cx="244.5" cy="570.5" r="81" stroke="#A67C52"/>
<circle cx="244.5" cy="570.5" r="53.605" stroke="#A67C52"/>
<circle cx="244.5" cy="570.5" r="23.4706" stroke="#A67C52"/>
</g>
<g opacity="0.3">
<circle cx="896.5" cy="407.5" r="81" stroke="#A67C52"/>
<circle cx="896.5" cy="407.5" r="53.605" stroke="#A67C52"/>
<circle cx="896.5" cy="407.5" r="23.4706" stroke="#A67C52"/>
</g>
<g opacity="0.3">
<circle cx="896.5" cy="570.5" r="81" stroke="#A67C52"/>
<circle cx="896.5" cy="570.5" r="53.605" stroke="#A67C52"/>
<circle cx="896.5" cy="570.5" r="23.4706" stroke="#A67C52"/>
</g>
<g opacity="0.3">
<circle cx="1548.5" cy="407.5" r="81" stroke="#A67C52"/>
<circle cx="1548.5" cy="407.5" r="53.605" stroke="#A67C52"/>
<circle cx="1548.5" cy="407.5" r="23.4706" stroke="#A67C52"/>
</g>
<g opacity="0.3">
<circle cx="1548.5" cy="570.5" r="81" stroke="#A67C52"/>
<circle cx="1548.5" cy="570.5" r="53.605" stroke="#A67C52"/>
<circle cx="1548.5" cy="570.5" r="23.4706" stroke="#A67C52"/>
</g>
<g opacity="0.3">
<circle cx="570.5" cy="407.5" r="81" stroke="#A67C52"/>
<circle cx="570.5" cy="407.5" r="53.605" stroke="#A67C52"/>
<circle cx="570.5" cy="407.5" r="23.4706" stroke="#A67C52"/>
</g>
<g opacity="0.3">
<circle cx="570.5" cy="570.5" r="81" stroke="#A67C52"/>
<circle cx="570.5" cy="570.5" r="53.605" stroke="#A67C52"/>
<circle cx="570.5" cy="570.5" r="23.4706" stroke="#A67C52"/>
</g>
<g opacity="0.3">
<circle cx="1222.5" cy="407.5" r="81" stroke="#A67C52"/>
<circle cx="1222.5" cy="407.5" r="53.605" stroke="#A67C52"/>
<circle cx="1222.5" cy="407.5" r="23.4706" stroke="#A67C52"/>
</g>
<g opacity="0.3">
<circle cx="1222.5" cy="570.5" r="81" stroke="#A67C52"/>
<circle cx="1222.5" cy="570.5" r="53.605" stroke="#A67C52"/>
<circle cx="1222.5" cy="570.5" r="23.4706" stroke="#A67C52"/>
</g>
<g opacity="0.3">
<circle cx="1874.5" cy="407.5" r="81" stroke="#A67C52"/>
<circle cx="1874.5" cy="407.5" r="53.605" stroke="#A67C52"/>
<circle cx="1874.5" cy="407.5" r="23.4706" stroke="#A67C52"/>
</g>
<g opacity="0.3">
<circle cx="1874.5" cy="570.5" r="81" stroke="#A67C52"/>
<circle cx="1874.5" cy="570.5" r="53.605" stroke="#A67C52"/>
<circle cx="1874.5" cy="570.5" r="23.4706" stroke="#A67C52"/>
</g>
<g opacity="0.3">
<circle cx="81.5" cy="733.5" r="81" stroke="#A67C52"/>
<circle cx="81.4996" cy="733.5" r="53.605" stroke="#A67C52"/>
<circle cx="81.4999" cy="733.5" r="23.4706" stroke="#A67C52"/>
</g>
<g opacity="0.3">
<circle cx="81.5" cy="896.5" r="81" stroke="#A67C52"/>
<circle cx="81.4996" cy="896.5" r="53.605" stroke="#A67C52"/>
<circle cx="81.4999" cy="896.5" r="23.4706" stroke="#A67C52"/>
</g>
<g opacity="0.3">
<circle cx="733.5" cy="733.5" r="81" stroke="#A67C52"/>
<circle cx="733.5" cy="733.5" r="53.605" stroke="#A67C52"/>
<circle cx="733.5" cy="733.5" r="23.4706" stroke="#A67C52"/>
</g>
<g opacity="0.3">
<circle cx="733.5" cy="896.5" r="81" stroke="#A67C52"/>
<circle cx="733.5" cy="896.5" r="53.605" stroke="#A67C52"/>
<circle cx="733.5" cy="896.5" r="23.4706" stroke="#A67C52"/>
</g>
<g opacity="0.3">
<circle cx="1385.5" cy="733.5" r="81" stroke="#A67C52"/>
<circle cx="1385.5" cy="733.5" r="53.605" stroke="#A67C52"/>
<circle cx="1385.5" cy="733.5" r="23.4706" stroke="#A67C52"/>
</g>
<g opacity="0.3">
<circle cx="1385.5" cy="896.5" r="81" stroke="#A67C52"/>
<circle cx="1385.5" cy="896.5" r="53.605" stroke="#A67C52"/>
<circle cx="1385.5" cy="896.5" r="23.4706" stroke="#A67C52"/>
</g>
<g opacity="0.3">
<circle cx="407.5" cy="733.5" r="81" stroke="#A67C52"/>
<circle cx="407.5" cy="733.5" r="53.605" stroke="#A67C52"/>
<circle cx="407.5" cy="733.5" r="23.4706" stroke="#A67C52"/>
</g>
<g opacity="0.3">
<circle cx="407.5" cy="896.5" r="81" stroke="#A67C52"/>
<circle cx="407.5" cy="896.5" r="53.605" stroke="#A67C52"/>
<circle cx="407.5" cy="896.5" r="23.4706" stroke="#A67C52"/>
</g>
<g opacity="0.3">
<circle cx="1059.5" cy="733.5" r="81" stroke="#A67C52"/>
<circle cx="1059.5" cy="733.5" r="53.605" stroke="#A67C52"/>
<circle cx="1059.5" cy="733.5" r="23.4706" stroke="#A67C52"/>
</g>
<g opacity="0.3">
<circle cx="1059.5" cy="896.5" r="81" stroke="#A67C52"/>
<circle cx="1059.5" cy="896.5" r="53.605" stroke="#A67C52"/>
<circle cx="1059.5" cy="896.5" r="23.4706" stroke="#A67C52"/>
</g>
<g opacity="0.3">
<circle cx="1711.5" cy="733.5" r="81" stroke="#A67C52"/>
<circle cx="1711.5" cy="733.5" r="53.605" stroke="#A67C52"/>
<circle cx="1711.5" cy="733.5" r="23.4706" stroke="#A67C52"/>
</g>
<g opacity="0.3">
<circle cx="1711.5" cy="896.5" r="81" stroke="#A67C52"/>
<circle cx="1711.5" cy="896.5" r="53.605" stroke="#A67C52"/>
<circle cx="1711.5" cy="896.5" r="23.4706" stroke="#A67C52"/>
</g>
<g opacity="0.3">
<circle cx="244.5" cy="733.5" r="81" stroke="#A67C52"/>
<circle cx="244.5" cy="733.5" r="53.605" stroke="#A67C52"/>
<circle cx="244.5" cy="733.5" r="23.4706" stroke="#A67C52"/>
</g>
<g opacity="0.3">
<circle cx="244.5" cy="896.5" r="81" stroke="#A67C52"/>
<circle cx="244.5" cy="896.5" r="53.605" stroke="#A67C52"/>
<circle cx="244.5" cy="896.5" r="23.4706" stroke="#A67C52"/>
</g>
<g opacity="0.3">
<circle cx="896.5" cy="733.5" r="81" stroke="#A67C52"/>
<circle cx="896.5" cy="733.5" r="53.605" stroke="#A67C52"/>
<circle cx="896.5" cy="733.5" r="23.4706" stroke="#A67C52"/>
</g>
<g opacity="0.3">
<circle cx="896.5" cy="896.5" r="81" stroke="#A67C52"/>
<circle cx="896.5" cy="896.5" r="53.605" stroke="#A67C52"/>
<circle cx="896.5" cy="896.5" r="23.4706" stroke="#A67C52"/>
</g>
<g opacity="0.3">
<circle cx="1548.5" cy="733.5" r="81" stroke="#A67C52"/>
<circle cx="1548.5" cy="733.5" r="53.605" stroke="#A67C52"/>
<circle cx="1548.5" cy="733.5" r="23.4706" stroke="#A67C52"/>
</g>
<g opacity="0.3">
<circle cx="1548.5" cy="896.5" r="81" stroke="#A67C52"/>
<circle cx="1548.5" cy="896.5" r="53.605" stroke="#A67C52"/>
<circle cx="1548.5" cy="896.5" r="23.4706" stroke="#A67C52"/>
</g>
<g opacity="0.3">
<circle cx="570.5" cy="733.5" r="81" stroke="#A67C52"/>
<circle cx="570.5" cy="733.5" r="53.605" stroke="#A67C52"/>
<circle cx="570.5" cy="733.5" r="23.4706" stroke="#A67C52"/>
</g>
<g opacity="0.3">
<circle cx="570.5" cy="896.5" r="81" stroke="#A67C52"/>
<circle cx="570.5" cy="896.5" r="53.605" stroke="#A67C52"/>
<circle cx="570.5" cy="896.5" r="23.4706" stroke="#A67C52"/>
</g>
<g opacity="0.3">
<circle cx="1222.5" cy="733.5" r="81" stroke="#A67C52"/>
<circle cx="1222.5" cy="733.5" r="53.605" stroke="#A67C52"/>
<circle cx="1222.5" cy="733.5" r="23.4706" stroke="#A67C52"/>
</g>
<g opacity="0.3">
<circle cx="1222.5" cy="896.5" r="81" stroke="#A67C52"/>
<circle cx="1222.5" cy="896.5" r="53.605" stroke="#A67C52"/>
<circle cx="1222.5" cy="896.5" r="23.4706" stroke="#A67C52"/>
</g>
<g opacity="0.3">
<circle cx="1874.5" cy="733.5" r="81" stroke="#A67C52"/>
<circle cx="1874.5" cy="733.5" r="53.605" stroke="#A67C52"/>
<circle cx="1874.5" cy="733.5" r="23.4706" stroke="#A67C52"/>
</g>
<g opacity="0.3">
<circle cx="1874.5" cy="896.5" r="81" stroke="#A67C52"/>
<circle cx="1874.5" cy="896.5" r="53.605" stroke="#A67C52"/>
<circle cx="1874.5" cy="896.5" r="23.4706" stroke="#A67C52"/>
</g>
</svg>
