<svg width="40" height="40" viewBox="0 0 40 40" fill="none" xmlns="http://www.w3.org/2000/svg">
<circle cx="20" cy="20" r="20" fill="#A67C52"/>
<path d="M28.9994 25.4765V28.1862C29.0005 28.4377 28.9488 28.6867 28.8479 28.9172C28.7469 29.1477 28.5988 29.3546 28.413 29.5247C28.2273 29.6947 28.008 29.8242 27.7693 29.9048C27.5305 29.9854 27.2775 30.0153 27.0265 29.9927C24.2415 29.6907 21.5664 28.7409 19.216 27.2197C17.0293 25.8329 15.1753 23.9827 13.7858 21.8003C12.2563 19.4439 11.3044 16.7611 11.0073 13.9692C10.9847 13.7194 11.0145 13.4676 11.0947 13.23C11.1749 12.9923 11.3038 12.7739 11.4732 12.5887C11.6426 12.4034 11.8489 12.2554 12.0787 12.1541C12.3086 12.0528 12.5571 12.0003 12.8084 12.0001H15.5235C15.9627 11.9958 16.3885 12.151 16.7215 12.4368C17.0545 12.7227 17.2721 13.1196 17.3335 13.5537C17.4481 14.4208 17.6607 15.2723 17.9671 16.0918C18.0888 16.4151 18.1152 16.7664 18.043 17.1042C17.9708 17.442 17.8031 17.752 17.5598 17.9976L16.4104 19.1447C17.6988 21.406 19.5748 23.2784 21.8406 24.5642L22.99 23.4171C23.2361 23.1742 23.5467 23.0069 23.8852 22.9348C24.2236 22.8628 24.5757 22.8891 24.8996 23.0106C25.7207 23.3164 26.5739 23.5285 27.4428 23.6429C27.8824 23.7048 28.2839 23.9258 28.5709 24.2639C28.858 24.6019 29.0105 25.0335 28.9994 25.4765Z" fill="white"/>
</svg>
