<svg width="70" height="39" viewBox="0 0 70 39" fill="none" xmlns="http://www.w3.org/2000/svg">
<path d="M7.54109 14.5137L6.55402 3.26722C6.39173 1.41837 4.84333 0 2.98705 0H2.07458C0.857297 0 -0.0982732 1.04299 0.00809406 2.25546L1.37499 17.8298C1.66313 21.113 4.41293 23.6317 7.70925 23.6317H20.9578C22.0618 23.6317 22.9567 22.7369 22.9567 21.633V21.1397C22.9567 18.9503 21.1817 17.1755 18.9921 17.1755H10.447C8.9348 17.1753 7.67335 16.0199 7.54109 14.5137Z" fill="#A67C52"/>
<path d="M58.7888 14.5137L59.7759 3.26722C59.9382 1.41837 61.4866 0 63.3429 0H64.2552C65.4725 0 66.428 1.04299 66.3217 2.25546L64.9548 17.8298C64.6666 21.113 61.9168 23.6317 58.6205 23.6317H45.372C44.268 23.6317 43.373 22.7369 43.373 21.633V21.1397C43.373 18.9503 45.1481 17.1755 47.3377 17.1755H55.8827C57.3952 17.1753 58.6567 16.0199 58.7888 14.5137Z" fill="#AFB0B0"/>
<path d="M21.6615 18.8432H13.1166C12.1158 18.8432 11.2953 18.0917 11.2077 17.0948L10.2207 5.84823C10.0115 3.46494 8.04941 1.66772 5.65661 1.66772H4.74415C3.88413 1.66772 3.05762 2.03136 2.47667 2.66548C1.89572 3.2996 1.60558 4.15471 1.68058 5.01154L3.04748 20.5858C3.20883 22.4238 4.04695 24.1222 5.40757 25.3686C6.26238 26.1516 7.27734 26.7133 8.37118 27.0229L5.09955 37.7057C4.93766 38.2342 5.23501 38.7938 5.76351 38.9556C5.8612 38.9855 5.95996 38.9998 6.05699 38.9998C6.48526 38.9998 6.88177 38.7227 7.01363 38.2918L8.17633 34.4952H21.9053L23.068 38.2918C23.1999 38.7227 23.5962 38.9998 24.0247 38.9998C24.1218 38.9998 24.2206 38.9855 24.3181 38.9556C24.8466 38.7938 25.144 38.2341 24.9821 37.7057L23.6035 33.2038C23.6021 33.1994 23.6008 33.195 23.5995 33.1906L21.7959 27.3011H23.6273C25.2816 27.3011 26.6271 25.9556 26.6271 24.3016V23.8082C26.6271 21.0705 24.3995 18.8432 21.6615 18.8432ZM8.78931 32.4934L10.3793 27.3011H19.7022L21.2922 32.4934H8.78931ZM24.6252 24.3016C24.6252 24.8519 24.1776 25.2995 23.6273 25.2995H20.4526C20.4486 25.2995 20.4447 25.2995 20.4407 25.2995H10.3788C10.1647 25.2995 9.95414 25.2857 9.74675 25.2617C9.74661 25.2617 9.74635 25.2617 9.74608 25.2617C7.24184 24.9723 5.26744 22.9845 5.04163 20.4108L3.67474 4.8366C3.64804 4.53302 3.7468 4.24224 3.9526 4.01766C4.15826 3.79307 4.43933 3.66937 4.74401 3.66937H5.65648C7.00375 3.66937 8.10853 4.68127 8.22624 6.02331L9.21331 17.2698V17.2696C9.39214 19.3077 11.0701 20.8447 13.1165 20.8447H21.6614C23.2956 20.8447 24.6251 22.1741 24.6251 23.8081L24.6252 24.3016ZM43.4347 35.6986C43.0217 34.111 41.5875 33.0022 39.9469 33.0022H39.3274V14.7827H51.6531C52.3631 14.7827 53.0276 14.4671 53.4762 13.9169C53.9249 13.3666 54.1004 12.6521 53.9574 11.9566C53.5268 9.86368 51.6635 8.34469 49.5266 8.34469H28.7164C28.1635 8.34469 27.7155 8.79279 27.7155 9.34552C27.7155 9.89824 28.1635 10.3463 28.7164 10.3463H49.5265C50.7178 10.3463 51.7564 11.1932 51.9963 12.3597C52.0255 12.5017 51.9639 12.6038 51.9246 12.6521C51.8853 12.7003 51.7977 12.7811 51.6529 12.7811H20.0158C19.871 12.7811 19.7834 12.7003 19.7441 12.6521C19.7048 12.6039 19.6432 12.5017 19.6724 12.3599C19.9124 11.1932 20.9509 10.3463 22.1422 10.3463H24.0218C24.5748 10.3463 25.0228 9.89824 25.0228 9.34552C25.0228 8.79279 24.5748 8.34469 24.0218 8.34469H22.1422C20.0052 8.34469 18.1419 9.86368 17.7115 11.9567C17.5685 12.6522 17.7439 13.3667 18.1926 13.9169C18.6413 14.4671 19.3058 14.7827 20.0158 14.7827H32.3415V33.0023H31.7219C30.0813 33.0023 28.6472 34.1111 28.2341 35.6986L27.9991 36.6016C27.8487 37.18 27.972 37.7828 28.3375 38.2557C28.7032 38.7285 29.2557 38.9998 29.8534 38.9998H41.8153C42.4131 38.9998 42.9655 38.7287 43.3312 38.2557C43.6967 37.7829 43.82 37.18 43.6696 36.6016L43.4347 35.6986ZM34.3433 14.7827H37.3256V33.0023H34.3433V14.7827ZM29.9644 36.998L30.1715 36.2024C30.355 35.4968 30.9926 35.004 31.7218 35.004H39.9468C40.676 35.004 41.3135 35.4968 41.497 36.2024L41.7042 36.998H29.9644ZM69.1923 2.66548C68.6114 2.03136 67.7849 1.66772 66.9248 1.66772H66.0124C63.6196 1.66772 61.6575 3.46494 61.4483 5.84823L60.4611 17.0948C60.3737 18.0915 59.5531 18.8432 58.5522 18.8432H50.0074C47.2693 18.8432 45.0417 21.0705 45.0417 23.8082V24.3016C45.0417 25.9556 46.3874 27.3011 48.0416 27.3011H49.8731L48.0695 33.1906C48.0682 33.195 48.0669 33.1994 48.0655 33.2038L46.6869 37.7057C46.525 38.2342 46.8224 38.7938 47.3509 38.9556C47.4485 38.9855 47.5473 38.9998 47.6443 38.9998C48.0726 38.9998 48.4691 38.7227 48.601 38.2918L49.7637 34.4952H63.4927L64.6554 38.2918C64.7872 38.7227 65.1836 38.9998 65.612 38.9998C65.7092 38.9998 65.8079 38.9855 65.9055 38.9556C66.434 38.7938 66.7313 38.2341 66.5694 37.7057L63.2974 27.0214C63.8719 26.8587 64.4267 26.6274 64.9472 26.3291C65.4268 26.0542 65.5926 25.4426 65.3177 24.9632C65.0428 24.4837 64.431 24.3179 63.9515 24.5927C63.1449 25.0551 62.2247 25.2996 61.2903 25.2996H51.2272C51.2239 25.2996 51.2205 25.2996 51.2173 25.2996H48.0419C47.4917 25.2996 47.0439 24.852 47.0439 24.3017V23.8084C47.0439 22.1744 48.3734 20.845 50.0076 20.845H58.5525C60.5989 20.845 62.2768 19.308 62.4557 17.2699L63.4427 6.02345C63.5605 4.68154 64.6652 3.66951 66.0125 3.66951H66.925C67.2295 3.66951 67.5107 3.79321 67.7164 4.01779C67.9222 4.24238 68.0209 4.53315 67.9942 4.8366L66.6274 20.4109C66.5937 20.795 66.5189 21.175 66.405 21.5404C66.2406 22.0681 66.5353 22.6293 67.0631 22.7935C67.5916 22.9579 68.152 22.6632 68.3166 22.1357C68.4728 21.6336 68.5755 21.1123 68.6218 20.5858L69.9887 5.01154C70.0634 4.15471 69.7733 3.2996 69.1923 2.66548ZM51.9664 27.3011H61.2892L62.8793 32.4934H50.3762L51.9664 27.3011Z" fill="white"/>
</svg>
