<svg width="5" height="9" viewBox="0 0 5 9" fill="none" xmlns="http://www.w3.org/2000/svg">
<path d="M0.232761 0.724482C0.0836786 0.866671 -3.25256e-07 1.05901 -3.16492e-07 1.2595C-3.07728e-07 1.45999 0.0836786 1.65234 0.232761 1.79453L3.06631 4.51897L0.232761 7.20547C0.0836788 7.34766 -4.19627e-08 7.54001 -3.3199e-08 7.7405C-2.44353e-08 7.94099 0.0836789 8.13333 0.232761 8.27552C0.307172 8.34665 0.395701 8.40311 0.493242 8.44164C0.590782 8.48016 0.695404 8.5 0.801071 8.5C0.906738 8.5 1.01136 8.48016 1.1089 8.44164C1.20644 8.40311 1.29497 8.34665 1.36938 8.27552L4.76323 5.05779C4.83826 4.98724 4.8978 4.90331 4.93844 4.81083C4.97908 4.71835 5 4.61916 5 4.51897C5 4.41879 4.97908 4.3196 4.93844 4.22712C4.8978 4.13464 4.83826 4.0507 4.76323 3.98015L1.36938 0.724482C1.29497 0.653351 1.20644 0.596893 1.1089 0.558365C1.01136 0.519837 0.906738 0.5 0.801071 0.5C0.695404 0.5 0.590782 0.519837 0.493241 0.558365C0.395701 0.596893 0.307172 0.653351 0.232761 0.724482Z" fill="white"/>
</svg>
