<svg width="40" height="40" viewBox="0 0 40 40" fill="none" xmlns="http://www.w3.org/2000/svg">
<circle cx="20" cy="20" r="19.3" stroke="white" stroke-width="1.4"/>
<path d="M28.3654 11.4007C28.1195 11.2004 27.8228 11.069 27.5067 11.0207C27.1907 10.9724 26.8672 11.009 26.5706 11.1265L11.0931 17.2478C10.7621 17.3812 10.4803 17.6101 10.2852 17.904C10.0901 18.1979 9.99087 18.543 10.0007 18.8935C10.0105 19.244 10.1288 19.5833 10.3401 19.8663C10.5513 20.1494 10.8454 20.3628 11.1834 20.4783L14.3141 21.5449L16.0591 27.1978C16.0829 27.2733 16.1173 27.3452 16.1614 27.4113C16.1681 27.4215 16.1775 27.429 16.1846 27.4389C16.2356 27.5085 16.2972 27.5701 16.3672 27.6214C16.3872 27.6363 16.4062 27.6502 16.4275 27.6634C16.5095 27.7167 16.6003 27.7557 16.6959 27.7786L16.7061 27.7794L16.7119 27.7819C16.7694 27.7933 16.8279 27.7991 16.8865 27.7992C16.8921 27.7992 16.8972 27.7966 16.9027 27.7965C16.9912 27.795 17.079 27.78 17.1628 27.7522C17.1823 27.7457 17.199 27.7348 17.2179 27.727C17.2804 27.7016 17.3396 27.6691 17.3944 27.6301C17.4382 27.5939 17.482 27.5578 17.5258 27.5216L19.8596 24.9976L23.3403 27.6389C23.6468 27.8726 24.024 27.9997 24.4123 28C24.8193 27.9995 25.2137 27.8619 25.5294 27.6104C25.8451 27.3589 26.0629 27.0087 26.1464 26.6186L28.9643 13.068C29.0281 12.7631 29.0061 12.4468 28.9006 12.1531C28.7952 11.8594 28.6102 11.5994 28.3654 11.4007ZM17.229 21.8142C17.1092 21.9311 17.0273 22.08 16.9936 22.2422L16.7263 23.5146L16.0492 21.3208L19.5602 19.5298L17.229 21.8142ZM24.3989 26.3013L20.2855 23.1799C20.1134 23.0496 19.8975 22.9877 19.6809 23.0064C19.4642 23.025 19.2627 23.123 19.1165 23.2807L18.3691 24.0888L18.6332 22.8313L24.7505 16.8388C24.8966 16.696 24.9855 16.5066 25.0013 16.3051C25.0171 16.1035 24.9587 15.9031 24.8367 15.7401C24.7146 15.5771 24.537 15.4623 24.336 15.4165C24.135 15.3707 23.9239 15.3969 23.741 15.4904L14.9616 19.9682L11.7451 18.8151L27.2723 12.7301L24.3989 26.3013Z" fill="white"/>
</svg>
