<svg width="60" height="52" viewBox="0 0 60 52" fill="none" xmlns="http://www.w3.org/2000/svg">
<path d="M53.4234 44.2857C53.4234 46.8103 51.3745 48.8571 48.8476 48.8571H4.57692C2.04995 48.8571 0.00114397 46.8103 0.00114397 44.2857H0V7.71338C0 10.2379 2.0488 12.2848 4.57692 12.2848H48.8476C51.3745 12.2848 53.4234 14.3316 53.4234 16.8562V44.2857Z" fill="#A67C52"/>
<path d="M57.426 21.7133H56.5685V19.1414V9.99863C56.5685 7.00528 54.1309 4.56998 51.1348 4.56998H27.5719L11.6753 0.0324055C11.6707 0.0311484 11.666 0.0304625 11.6615 0.0292053C11.6568 0.0279482 11.6523 0.0261198 11.6476 0.0249769C11.638 0.0225769 11.6285 0.0214341 11.619 0.019377C11.6043 0.0162913 11.5895 0.0130913 11.5748 0.0106913C11.5614 0.00851987 11.5482 0.00714844 11.5348 0.00554845C11.5193 0.00371989 11.5038 0.00211989 11.4884 0.00120561C11.4758 0.000519897 11.4633 0.000405523 11.4508 0.000176953C11.4347 -5.16169e-05 11.4188 -0.000165872 11.4029 0.000519838C11.3912 0.000976978 11.3794 0.00211976 11.3677 0.00303404C11.3513 0.00440546 11.335 0.00589133 11.3189 0.00829131C11.3079 0.0098913 11.297 0.0119484 11.2861 0.0138913C11.2694 0.0168627 11.253 0.0200625 11.2366 0.0240625C11.2264 0.0265768 11.2165 0.0294339 11.2064 0.0322911C11.1897 0.037091 11.1732 0.0420053 11.1568 0.0477196C11.1475 0.0510339 11.1383 0.0545768 11.1291 0.0582339C11.1125 0.0646339 11.096 0.0713765 11.0799 0.078805C11.0713 0.082805 11.063 0.0871479 11.0545 0.0913765C11.0384 0.0994907 11.0225 0.107719 11.0069 0.116976C10.9988 0.121662 10.991 0.126691 10.983 0.131719C10.9677 0.141319 10.9526 0.151148 10.9379 0.161776C10.9303 0.167262 10.9228 0.173205 10.9153 0.179033C10.9012 0.18989 10.8872 0.200976 10.8739 0.212747C10.8663 0.219376 10.8591 0.226347 10.8518 0.233204C10.8392 0.24509 10.8267 0.256976 10.8148 0.269547C10.8074 0.277433 10.8004 0.285661 10.7932 0.29389C10.7823 0.306347 10.7716 0.318918 10.7614 0.332061C10.7541 0.341547 10.7472 0.351261 10.7403 0.360975C10.7312 0.373661 10.7223 0.386461 10.7141 0.399603C10.707 0.410803 10.7004 0.42246 10.6939 0.434003C10.6867 0.446689 10.6795 0.459489 10.673 0.472631C10.6666 0.485431 10.6609 0.498574 10.655 0.511717C10.6493 0.524631 10.6437 0.537545 10.6387 0.550802C10.6334 0.564745 10.6288 0.579031 10.6241 0.593431C10.6212 0.602688 10.6175 0.611374 10.6148 0.620745C10.6134 0.625431 10.6128 0.630002 10.6116 0.634573C10.6103 0.639259 10.6085 0.643716 10.6073 0.648402L9.62628 4.56975H6.864C3.87384 4.56975 1.44044 6.99522 1.4306 9.98035C1.43049 9.98652 1.42969 9.99235 1.42969 9.99841V39.7125C1.42969 40.1857 1.8152 40.5697 2.28765 40.5697C2.76124 40.5697 3.1456 40.1857 3.1456 39.7125V13.9519C4.11841 14.8657 5.4264 15.4273 6.864 15.4273H51.1348C51.1358 15.4273 51.1367 15.4272 51.1377 15.4272C53.1863 15.4288 54.8526 17.0944 54.8526 19.1416V25.142H45.4137C45.4131 25.142 45.4126 25.1421 45.4121 25.1421C45.3872 25.1421 45.3625 25.1436 45.3379 25.1457C45.3106 25.1481 45.2836 25.152 45.2571 25.1569C45.2531 25.1576 45.2492 25.158 45.2452 25.1588C45.2227 25.1632 45.2008 25.1692 45.1789 25.1753C45.1741 25.1767 45.1692 25.1776 45.1645 25.1791C45.1451 25.1851 45.1262 25.1921 45.1073 25.1993C45.1001 25.2021 45.0928 25.2044 45.0856 25.2073C45.0698 25.2139 45.0546 25.2215 45.0394 25.2289C45.0293 25.2337 45.0191 25.2382 45.0093 25.2433C44.9974 25.2496 44.9862 25.2568 44.9747 25.2637C44.962 25.2712 44.9491 25.2785 44.9368 25.2868C44.9284 25.2923 44.9207 25.2985 44.9127 25.3044C44.8981 25.3149 44.8833 25.3253 44.8694 25.3368C44.8633 25.3419 44.8577 25.3475 44.8519 25.3526C44.8369 25.3656 44.8219 25.3785 44.8077 25.3927C44.7994 25.4011 44.7918 25.4102 44.7839 25.4189C44.7728 25.4309 44.7614 25.4427 44.7509 25.4555C44.7331 25.4771 44.7165 25.4995 44.701 25.5227C44.7006 25.523 44.7003 25.5235 44.7001 25.5239L40.1245 32.3811C40.0926 32.4289 40.0656 32.4795 40.0442 32.5322C40.0361 32.5519 40.0296 32.5719 40.0231 32.5918C40.0211 32.5978 40.0186 32.6036 40.0168 32.6097C40.0104 32.6308 40.0054 32.6522 40.0008 32.6735C39.9995 32.6791 39.9979 32.6846 39.9967 32.6902C39.993 32.7094 39.9905 32.7287 39.9881 32.748C39.987 32.7562 39.9854 32.7645 39.9846 32.7728C39.983 32.7887 39.9827 32.8044 39.9821 32.8203C39.9815 32.8324 39.9805 32.8446 39.9805 32.8568C39.9805 32.8686 39.9815 32.8803 39.982 32.8921C39.9826 32.9083 39.983 32.9247 39.9846 32.9409C39.9854 32.9488 39.9869 32.9567 39.9879 32.9646C39.9905 32.9842 39.993 33.0039 39.9969 33.0234C39.9979 33.0288 39.9995 33.034 40.0008 33.0394C40.0054 33.0609 40.0105 33.0824 40.0169 33.1038C40.0187 33.1098 40.0212 33.1156 40.0232 33.1218C40.0297 33.1417 40.0362 33.1617 40.0443 33.1814C40.0658 33.2339 40.0928 33.2847 40.1249 33.3326L44.7003 40.1888C44.7005 40.1891 44.7008 40.1893 44.701 40.1897C44.7194 40.217 44.7395 40.243 44.7608 40.2681C44.7678 40.2763 44.7752 40.2839 44.7824 40.2917C44.797 40.3076 44.8121 40.3229 44.8277 40.3377C44.837 40.3463 44.8462 40.3548 44.8555 40.3629C44.8722 40.3772 44.8895 40.3906 44.9072 40.4036C44.9153 40.4094 44.9229 40.4158 44.931 40.4213C44.9568 40.4388 44.9834 40.4549 45.011 40.4695C45.018 40.4732 45.0252 40.4763 45.0322 40.4797C45.0541 40.4907 45.0765 40.5009 45.0995 40.5099C45.1085 40.5134 45.1174 40.5166 45.1264 40.5198C45.1483 40.5276 45.1705 40.5345 45.1931 40.5405C45.2024 40.5429 45.2115 40.5454 45.2209 40.5477C45.2441 40.5531 45.2677 40.5572 45.2916 40.5606C45.3003 40.5619 45.3089 40.5636 45.3176 40.5646C45.3471 40.5679 45.3771 40.5698 45.4075 40.57C45.4099 40.57 45.4123 40.5705 45.4148 40.5705C45.4153 40.5705 45.4158 40.5703 45.4164 40.5703H54.8529V46.5712C54.8529 48.6194 53.1851 50.2857 51.1351 50.2857H6.86445C4.8145 50.2857 3.14663 48.6194 3.14663 46.5712C3.14663 46.5668 3.14606 46.5624 3.14595 46.558V43.1415C3.14595 42.6695 2.76158 42.2844 2.28799 42.2844C1.81554 42.2844 1.43003 42.6695 1.43003 43.1415V46.5712C1.43003 46.5801 1.43106 46.5888 1.4314 46.5976C1.4457 49.5789 3.87716 52 6.86445 52H51.1351C54.131 52 56.5684 49.5652 56.5688 46.5721C56.5688 46.572 56.5688 46.5719 56.5688 46.5717V40.5703H57.4263C58.8453 40.5703 59.9998 39.417 59.9998 37.9994V24.2843C59.9994 22.8667 58.845 21.7133 57.426 21.7133ZM58.2835 37.9989C58.2835 38.4713 57.8988 38.8556 57.426 38.8556H45.8728L41.8692 32.8563L45.8728 26.8561H57.426C57.438 26.8561 57.4497 26.8548 57.4616 26.8543C57.7494 26.8503 58.0258 26.7991 58.2835 26.7079V37.9989ZM12.0569 1.92417L27.1958 6.24563C27.1965 6.24586 27.1973 6.24597 27.198 6.2462L37.3443 9.14241H10.2511L12.0569 1.92417ZM51.1348 13.7128C51.1333 13.7128 51.1319 13.713 51.1303 13.713H6.864C4.81393 13.713 3.14606 12.0467 3.14606 9.99863C3.14606 7.95053 4.81393 6.28426 6.864 6.28426H9.19741L8.48245 9.14241H6.86422C6.3904 9.14241 6.00627 9.52618 6.00627 9.99955C6.00627 10.4729 6.3904 10.8567 6.86422 10.8567H9.14937C9.15051 10.8567 9.15177 10.8569 9.15303 10.8569C9.15394 10.8569 9.15486 10.8567 9.15566 10.8567H43.4672C43.4684 10.8567 43.4694 10.8569 43.4705 10.8569C43.4714 10.8569 43.4723 10.8567 43.4732 10.8567H49.9898C50.4636 10.8567 50.8478 10.4729 50.8478 9.99955C50.8478 9.52618 50.4636 9.14241 49.9898 9.14241H43.5902L33.5774 6.28426H51.1347C53.1846 6.28426 54.8525 7.95053 54.8525 9.99863V15.1879C53.8798 14.2743 52.572 13.7128 51.1348 13.7128ZM56.5685 23.4276H57.426C57.8988 23.4276 58.2835 23.8119 58.2835 24.2843C58.2835 24.7566 57.8988 25.1409 57.426 25.1409C57.4201 25.1409 57.4142 25.1418 57.4083 25.1419H56.5685V23.4276Z" fill="white"/>
<path d="M48.846 29.7134C47.1114 29.7134 45.7002 31.1233 45.7002 32.8563C45.7002 34.5893 47.1114 35.9992 48.846 35.9992C50.5807 35.9992 51.9919 34.5893 51.9919 32.8563C51.9919 31.1233 50.5807 29.7134 48.846 29.7134ZM48.846 34.2849C48.0575 34.2849 47.4161 33.6441 47.4161 32.8563C47.4161 32.0686 48.0575 31.4277 48.846 31.4277C49.6346 31.4277 50.276 32.0686 50.276 32.8563C50.276 33.6441 49.6346 34.2849 48.846 34.2849Z" fill="white"/>
</svg>
