<svg width="70" height="52" viewBox="0 0 70 52" fill="none" xmlns="http://www.w3.org/2000/svg">
<path d="M60.2407 39.3135L66.3298 37.6683V21.5625C66.3298 20.1503 65.1933 19.0059 63.7909 19.0059H15.4256C14.0232 19.0059 12.8867 20.1503 12.8867 21.5625V45.7482C12.8867 47.1598 14.0232 48.3043 15.4256 48.3043H63.7915C65.1933 48.3043 66.3298 47.1598 66.3298 45.7482V41.9573L60.2407 39.3135Z" fill="#AFB0B0"/>
<path d="M50.9047 0H2.53888C1.1365 0 0 1.14445 0 2.55664V26.7423C0 28.154 1.1365 29.2984 2.53888 29.2984H50.9047C52.3066 29.2984 53.4431 28.154 53.4431 26.7423V2.55664C53.4431 1.14445 52.3066 0 50.9047 0Z" fill="#A67C52"/>
<path d="M66.4604 20.6858H60.1158C59.5627 20.6858 59.1148 21.1367 59.1148 21.6937C59.1148 22.2507 59.5627 22.7017 60.1158 22.7017H66.4604C67.3081 22.7017 67.9978 23.3962 67.9978 24.2504V26.7608H64.6336C64.0805 26.7608 63.6327 27.2118 63.6327 27.7688C63.6327 28.3253 64.0805 28.7767 64.6336 28.7767H67.9978V39.5834L62.7777 40.9935H41.8818C41.3286 40.9935 40.8808 41.4444 40.8808 42.0014C40.8808 42.5579 41.3286 43.0094 41.8818 43.0094H62.7032L67.9978 45.3082V48.4355C67.9978 49.2897 67.3081 49.9842 66.4604 49.9842H18.0945C17.2463 49.9842 16.5566 49.2897 16.5566 48.4355V39.1371H28.1786C28.7317 39.1371 29.1796 38.6857 29.1796 38.1292C29.1796 37.5722 28.7317 37.1212 28.1786 37.1212H16.5566V36.0172C16.5566 35.4607 16.1088 35.0093 15.5556 35.0093C15.003 35.0093 14.5547 35.4607 14.5547 36.0172V48.4355C14.5547 50.401 16.1427 52.0001 18.0945 52.0001H66.4604C68.4117 52.0001 69.9997 50.401 69.9997 48.4355V44.6452C69.9997 44.2425 69.762 43.8787 69.395 43.7191L65.95 42.2235L69.2584 41.33C69.6952 41.2113 69.9997 40.8123 69.9997 40.3561V24.2504C69.9997 22.2849 68.4117 20.6858 66.4604 20.6858Z" fill="white"/>
<path d="M57.113 29.4302V5.24452C57.113 3.27901 55.5255 1.67993 53.5737 1.67993H40.1656C40.1546 1.67993 40.1442 1.67993 40.1333 1.67993H23.9637C23.4106 1.67993 22.9627 2.13141 22.9627 2.68789C22.9627 3.24489 23.4106 3.69584 23.9637 3.69584H30.558C31.3801 4.81719 32.3206 6.35275 32.6887 7.89776C33.0692 9.49526 32.745 10.719 31.6987 11.6398C30.1998 12.9575 28.0217 12.9864 26.856 12.8877C24.3234 12.6735 21.7319 11.9448 19.1529 10.7221C17.751 10.057 16.3757 9.29367 14.9202 8.48626C11.5456 6.61314 8.06886 4.68437 4.23291 4.04758C4.49879 3.82814 4.83818 3.69637 5.2078 3.69637H19.9599C20.5125 3.69637 20.9608 3.24489 20.9608 2.68841C20.9608 2.13141 20.5125 1.68046 19.9599 1.68046H5.2078C3.25594 1.68046 1.66797 3.27901 1.66797 5.24452V19.81V19.8473V26.8158V26.8552V29.4302C1.66797 31.3957 3.25594 32.9943 5.2078 32.9943H53.5737C55.525 32.9943 57.113 31.3957 57.113 29.4302ZM55.1111 5.24452V16.2076C54.2139 17.3578 53.2004 18.4277 52.0947 19.3927C48.0778 22.9011 42.7988 25.1249 37.2305 25.6546C28.6499 26.4672 19.646 23.2439 10.7683 23.8418C8.22056 24.0145 5.79742 24.5212 3.66988 25.3212V20.65C4.50765 20.483 5.35951 20.3376 6.21188 20.2169C13.3046 19.2073 20.4577 19.7034 27.1308 20.3896L27.4576 20.4237C29.495 20.6347 31.6022 20.8526 33.7167 20.651C36.3302 20.4011 38.5547 19.5087 40.1484 18.0708C43.3566 15.1766 43.6939 10.5725 42.9406 7.22999C42.6836 6.08554 42.29 4.91904 41.7478 3.69584H53.5737C54.4213 3.69584 55.1111 4.39039 55.1111 5.24452ZM18.3 12.5454C21.0953 13.8709 23.9178 14.6621 26.6876 14.8962C27.0249 14.9251 27.3565 14.9393 27.6823 14.9393C29.825 14.9387 31.6929 14.3208 33.0155 13.158C35.4752 10.9941 35.4408 7.6043 32.9853 3.69584H39.5358C40.2276 5.10541 40.7041 6.41207 40.9882 7.67517C41.777 11.1741 40.9231 14.6652 38.8127 16.5688C37.2044 18.0204 35.0508 18.4981 33.5275 18.644C31.61 18.8273 29.6034 18.6188 27.6625 18.4183L27.3341 18.3842C20.5354 17.6849 13.2368 17.1814 5.93193 18.2204C5.17496 18.328 4.41798 18.454 3.66988 18.5963V5.99944C7.26653 6.54017 10.6614 8.42431 13.9542 10.2512C15.3727 11.0387 16.8402 11.8535 18.3 12.5454ZM3.66988 29.4302V27.4899C5.77136 26.5959 8.25706 26.032 10.9023 25.853C19.646 25.2629 28.3856 28.5162 37.4182 27.6616C43.3989 27.0925 49.0772 24.697 53.4063 20.9161C54.0001 20.398 54.5694 19.8515 55.1111 19.2803V29.4302C55.1111 30.2838 54.4213 30.9784 53.5737 30.9784H5.2078C4.3596 30.9784 3.66988 30.2838 3.66988 29.4302Z" fill="white"/>
</svg>
